<?xml version="1.0" standalone="no"?>
<!DOCTYPE svg PUBLIC "-//W3C//DTD SVG 20010904//EN"
 "http://www.w3.org/TR/2001/REC-SVG-20010904/DTD/svg10.dtd">
<svg version="1.0" xmlns="http://www.w3.org/2000/svg"
 width="1000.000000pt" height="1000.000000pt" viewBox="0 0 1000.000000 1000.000000"
 preserveAspectRatio="xMidYMid meet">
<metadata>
Created by potrace 1.11, written by Peter Selinger 2001-2013
</metadata>
<g transform="translate(0.000000,1000.000000) scale(0.100000,-0.100000)"
fill="#000000" stroke="none">
<path d="M0 5000 l0 -5000 5000 0 5000 0 0 5000 0 5000 -5000 0 -5000 0 0
-5000z m1778 1673 c9 -24 9 -291 -1 -325 l-7 -28 -185 0 -184 0 7 -37 c4 -21
7 -83 6 -138 -1 -133 -1 -249 -1 -370 0 -114 0 -229 1 -395 0 -63 -3 -127 -7
-142 -7 -28 -8 -28 -95 -28 l-87 0 0 -185 0 -184 90 -3 90 -3 8 -55 c5 -30 5
-107 2 -170 -4 -63 -6 -140 -4 -170 2 -30 3 -101 3 -157 -1 -125 -1 -234 0
-373 1 -58 -2 -122 -6 -142 l-7 -38 185 0 c166 0 185 -2 192 -17 9 -24 9 -291
-1 -325 l-7 -28 -279 0 -280 0 -7 57 c-4 31 -4 114 -2 185 l6 128 -89 0 c-88
0 -89 0 -96 28 -4 15 -7 79 -7 142 1 240 1 283 1 385 0 58 0 141 0 185 0 44 0
122 -1 173 0 50 2 116 6 145 l7 52 -184 0 -185 0 -7 28 c-10 35 -10 279 0 315
l7 27 185 0 185 0 -7 33 c-4 17 -7 82 -7 142 0 61 1 151 1 200 0 50 0 135 0
190 0 55 0 138 0 185 -2 251 -1 307 6 333 7 27 8 27 96 27 l88 0 -5 129 c-2
71 -1 154 2 185 l7 56 280 0 c257 0 280 -1 287 -17z m6859 -20 c9 -50 9 -214
0 -280 l-8 -53 95 0 94 0 8 -67 c3 -36 4 -116 0 -177 -4 -61 -6 -129 -4 -151
1 -22 2 -95 2 -162 0 -68 -1 -151 0 -185 0 -35 0 -132 0 -215 l0 -153 182 0
182 0 8 -67 c7 -73 1 -274 -10 -292 -5 -7 -67 -11 -190 -11 l-183 0 9 -52 c6
-30 7 -108 4 -178 -4 -69 -6 -143 -4 -165 4 -51 4 -268 0 -320 -2 -22 0 -98 3
-170 3 -71 2 -150 -2 -175 l-9 -45 -92 -3 -93 -3 7 -37 c10 -50 10 -226 0
-284 l-7 -48 -279 0 -279 0 -8 38 c-4 20 -7 87 -7 147 0 61 3 127 7 148 l8 37
185 0 184 0 -6 41 c-7 44 -8 59 -6 524 0 39 -1 122 -1 185 -1 232 0 287 7 323
l7 37 93 0 93 0 -8 43 c-10 53 -10 217 0 280 l8 47 -93 0 -93 0 -6 33 c-7 35
-9 116 -8 335 1 296 1 481 -1 557 0 33 2 88 6 123 l8 62 -185 0 -184 0 -8 38
c-4 20 -7 87 -7 147 0 61 3 127 7 148 l8 37 279 0 279 0 8 -37z m-5203 -358
c9 -45 9 -235 0 -291 l-6 -43 93 -3 94 -3 8 -55 c9 -59 3 -263 -8 -292 -7 -16
1 -18 88 -18 l95 0 7 -37 c3 -20 6 -91 5 -157 -1 -67 -2 -278 -1 -471 1 -192
-1 -371 -5 -397 l-6 -48 -94 0 -94 0 8 -32 c9 -43 9 -275 -1 -310 -7 -28 -8
-28 -96 -28 l-88 0 5 -129 c2 -71 1 -154 -2 -185 l-7 -56 -559 0 -558 0 -6 48
c-7 61 -7 2455 0 2505 l6 37 558 0 558 0 6 -35z m2041 -21 c9 -66 2 -284 -9
-302 -5 -9 -93 -12 -369 -12 l-363 0 1 -152 c0 -84 -1 -171 -3 -193 -1 -22 0
-96 4 -165 3 -69 2 -149 -4 -177 l-9 -53 373 0 373 0 6 -56 c9 -66 2 -284 -9
-302 -5 -9 -94 -12 -376 -12 l-368 0 10 -42 c6 -25 7 -100 4 -178 -8 -160 -8
-135 0 -290 3 -69 2 -149 -4 -177 l-9 -53 373 0 373 0 6 -56 c9 -66 2 -284 -9
-302 -5 -9 -133 -12 -561 -12 l-554 0 -6 44 c-7 45 -8 104 -8 321 1 72 1 155
1 185 0 51 0 213 0 385 0 39 0 124 0 190 0 66 0 146 0 178 0 115 0 308 0 360
0 28 0 111 0 182 0 174 0 232 -1 383 0 206 2 295 8 330 l6 32 559 0 559 0 6
-56z m923 39 c4 -10 7 -74 6 -143 -1 -228 -1 -279 -1 -390 0 -189 0 -262 1
-375 1 -60 -2 -127 -6 -147 l-7 -38 69 0 c67 0 70 -1 77 -27 10 -36 10 -279 0
-315 l-7 -28 69 0 70 0 8 -37 c10 -47 10 -234 0 -290 l-7 -43 88 0 87 0 -3
140 c-3 77 -1 160 2 185 l7 45 70 0 70 0 -7 48 c-10 59 -10 235 0 285 l7 37
69 0 69 0 -7 53 c-4 28 -6 90 -6 137 1 47 2 132 1 190 0 58 0 141 1 185 0 44
-1 127 -1 185 -1 253 0 287 7 323 l7 37 185 0 c166 0 185 -2 192 -17 6 -16 7
-79 6 -343 -1 -36 0 -119 0 -185 0 -66 -1 -140 -2 -165 -2 -25 0 -99 3 -165 4
-66 3 -145 -2 -175 l-8 -55 -71 -3 -72 -3 9 -37 c10 -44 11 -231 1 -287 l-7
-40 -67 -3 -66 -3 5 -117 c3 -65 3 -148 -1 -185 l-8 -67 -47 0 -48 0 9 -57
c10 -60 5 -284 -7 -302 -3 -7 -43 -11 -93 -11 l-87 0 3 -140 c3 -77 1 -160 -2
-185 l-7 -45 -188 0 -188 0 -7 46 c-8 65 -7 230 3 282 l8 42 -93 0 -93 0 -8
38 c-10 46 -10 268 0 304 7 26 6 27 -40 30 l-48 3 -8 55 c-9 61 -4 265 8 293
6 15 0 17 -64 17 -69 0 -71 1 -78 28 -10 35 -10 267 -1 310 l8 32 -70 0 -69 0
-8 38 c-4 20 -7 82 -7 137 1 198 2 282 1 375 0 52 0 138 0 190 0 52 0 145 0
205 -1 61 2 122 6 138 l7 27 186 0 c166 0 185 -2 192 -17z"/>
<path d="M2695 5035 l0 -925 273 0 272 0 -7 28 c-10 36 -10 279 0 315 7 27 8
27 95 27 l87 0 0 555 0 555 -87 0 c-87 0 -88 0 -95 28 -10 36 -10 246 0 300
l7 42 -272 0 -273 0 0 -925z"/>
</g>
</svg>
